<svg width="30" height="14" viewBox="0 0 30 14" fill="none" xmlns="http://www.w3.org/2000/svg">
<path d="M3.35941 13.1428L0.952042 10.3486C0.727679 10.0903 0.550694 9.77888 0.432419 9.4344C0.314145 9.08991 0.25719 8.7199 0.2652 8.34808C0.27321 7.97625 0.346009 7.6108 0.478937 7.27513C0.611863 6.93945 0.80199 6.64097 1.03713 6.39878C3.69095 3.76434 6.82619 1.914 10.1909 0.996442C13.296 0.113393 16.5279 0.0602917 19.657 0.840909C23.0606 1.65285 26.2594 3.41247 28.9943 5.97721C29.2356 6.21085 29.4337 6.5019 29.5762 6.83184C29.7186 7.16177 29.8022 7.52335 29.8217 7.89356C29.8411 8.26377 29.796 8.63449 29.6891 8.98213C29.5822 9.32977 29.416 9.64671 29.2009 9.91277L26.8752 12.7848C26.5028 13.2538 26.0002 13.5441 25.461 13.6017C24.9218 13.6592 24.3828 13.48 23.9445 13.0974C23.076 12.3244 22.1375 11.6712 21.147 11.1503C20.7555 10.9457 20.4207 10.6113 20.1825 10.1866C19.9442 9.76193 19.8124 9.26483 19.8027 8.7542L19.7681 6.3555C16.6555 5.3865 13.3851 5.44023 10.302 6.51104L10.3365 8.90973C10.3415 9.42044 10.2241 9.92164 9.99818 10.3539C9.77227 10.7862 9.44735 11.1315 9.06191 11.3488C8.08689 11.9021 7.16767 12.5858 6.32179 13.3869C5.89022 13.7882 5.34996 13.985 4.80376 13.94C4.25756 13.8949 3.74352 13.6112 3.35941 13.1428Z" fill="white"/>
</svg>
