<svg width="132" height="55" viewBox="0 0 132 55" fill="none" xmlns="http://www.w3.org/2000/svg">
<path d="M116.32 54.7411L107.023 21.6702C107.004 21.6008 106.964 21.5396 106.909 21.4954C106.855 21.4512 106.788 21.4262 106.719 21.424C106.649 21.4219 106.581 21.4427 106.524 21.4835C106.467 21.5243 106.423 21.5829 106.4 21.6509L98.3111 47.3904C98.2879 47.457 98.2455 47.5146 98.1898 47.5554C98.1341 47.5961 98.0676 47.6179 97.9995 47.6179C97.9314 47.6179 97.865 47.5961 97.8093 47.5554C97.7535 47.5146 97.7112 47.457 97.688 47.3904L91.8429 27.6091C91.8216 27.541 91.7798 27.4819 91.7237 27.4405C91.6675 27.3992 91.6001 27.3778 91.5313 27.3795H87.6847C87.6414 27.3797 87.5984 27.3709 87.5583 27.3537C87.5181 27.3365 87.4817 27.3112 87.451 27.2793C87.4203 27.2473 87.396 27.2093 87.3795 27.1676C87.363 27.1258 87.3546 27.081 87.3547 27.0358V21.365C87.3546 21.3198 87.363 21.275 87.3795 21.2332C87.396 21.1915 87.4203 21.1535 87.451 21.1216C87.4817 21.0896 87.5181 21.0643 87.5583 21.0471C87.5984 21.0299 87.6414 21.0211 87.6847 21.0213H96.0446C96.1133 21.0196 96.1807 21.041 96.2368 21.0823C96.293 21.1237 96.3348 21.1828 96.3561 21.2509L97.8966 26.4254C97.9178 26.494 97.9595 26.5539 98.0154 26.5963C98.0714 26.6387 98.1389 26.6616 98.2081 26.6616C98.2773 26.6616 98.3448 26.6387 98.4008 26.5963C98.4567 26.5539 98.4984 26.494 98.5196 26.4254L106.75 0.22685C106.773 0.158814 106.817 0.100188 106.874 0.059415C106.931 0.0186421 106.999 -0.00217326 107.068 -3.31621e-05C107.138 0.00210694 107.204 0.027092 107.259 0.0713237C107.314 0.115555 107.354 0.176751 107.373 0.246097L116.154 31.5422C116.174 31.6123 116.215 31.6738 116.271 31.7176C116.327 31.7613 116.395 31.785 116.466 31.785C116.536 31.785 116.604 31.7613 116.66 31.7176C116.716 31.6738 116.757 31.6123 116.777 31.5422L119.49 21.288C119.507 21.2158 119.547 21.1519 119.604 21.1067C119.66 21.0614 119.73 21.0376 119.801 21.0392H131.662C131.705 21.039 131.748 21.0478 131.788 21.065C131.828 21.0822 131.865 21.1075 131.896 21.1394C131.926 21.1714 131.951 21.2093 131.967 21.2511C131.984 21.2929 131.992 21.3377 131.992 21.3829V27.0537C131.992 27.0989 131.984 27.1437 131.967 27.1854C131.951 27.2272 131.926 27.2652 131.896 27.2971C131.865 27.3291 131.828 27.3544 131.788 27.3716C131.748 27.3888 131.705 27.3976 131.662 27.3974H124.448C124.377 27.3958 124.307 27.4197 124.25 27.4649C124.194 27.5101 124.153 27.5741 124.136 27.6462L116.95 54.7796C116.925 54.8477 116.879 54.9056 116.82 54.9451C116.761 54.9846 116.692 55.0035 116.622 54.9992C116.552 54.9949 116.485 54.9677 116.431 54.9213C116.377 54.8749 116.338 54.8118 116.32 54.7411Z" fill="#660066"/>
<path d="M31.9899 54.7412L22.6955 21.6895C22.6762 21.6201 22.6363 21.5589 22.5816 21.5147C22.5268 21.4705 22.4599 21.4455 22.3907 21.4434C22.3214 21.4412 22.2532 21.462 22.196 21.5028C22.1388 21.5436 22.0956 21.6022 22.0724 21.6702L14.0056 47.4124C13.9824 47.4791 13.9401 47.5367 13.8844 47.5774C13.8286 47.6181 13.7622 47.64 13.6941 47.64C13.626 47.64 13.5596 47.6181 13.5038 47.5774C13.4481 47.5367 13.4058 47.4791 13.3826 47.4124L7.53479 27.616C7.5135 27.5479 7.47169 27.4888 7.41556 27.4475C7.35944 27.4061 7.292 27.3847 7.22326 27.3864H0.330013C0.286626 27.3866 0.243635 27.3779 0.203517 27.3607C0.1634 27.3434 0.12695 27.3181 0.0962711 27.2862C0.065592 27.2542 0.0412903 27.2163 0.0247676 27.1745C0.00824485 27.1327 -0.000171934 27.0879 2.66163e-06 27.0428V21.365C-0.000171934 21.3199 0.00824485 21.2751 0.0247676 21.2333C0.0412903 21.1915 0.065592 21.1536 0.0962711 21.1216C0.12695 21.0897 0.1634 21.0644 0.203517 21.0471C0.243635 21.0299 0.286626 21.0212 0.330013 21.0214H11.7325C11.8013 21.0196 11.8687 21.041 11.9248 21.0824C11.9809 21.1237 12.0228 21.1829 12.044 21.2509L13.5845 26.4255C13.6058 26.4941 13.6474 26.5539 13.7034 26.5964C13.7594 26.6388 13.8268 26.6617 13.8961 26.6617C13.9653 26.6617 14.0328 26.6388 14.0887 26.5964C14.1447 26.5539 14.1863 26.4941 14.2076 26.4255L22.4209 0.226911C22.444 0.158875 22.4873 0.100249 22.5445 0.0594761C22.6017 0.0187031 22.6699 -0.00211223 22.7391 2.7873e-05C22.8084 0.00216797 22.8753 0.0271531 22.93 0.0713848C22.9848 0.115616 23.0247 0.176812 23.0439 0.246158L31.8248 31.5423C31.8446 31.6124 31.8857 31.6739 31.9418 31.7176C31.998 31.7614 32.0662 31.7851 32.1364 31.7851C32.2065 31.7851 32.2748 31.7614 32.3309 31.7176C32.3871 31.6739 32.4281 31.6124 32.4479 31.5423L35.1619 21.2922C35.179 21.22 35.2191 21.1561 35.2758 21.1108C35.3324 21.0656 35.4021 21.0418 35.4734 21.0434H44.2913C44.3347 21.0432 44.3777 21.0519 44.4178 21.0691C44.4579 21.0864 44.4944 21.1117 44.5251 21.1436C44.5557 21.1756 44.58 21.2135 44.5966 21.2553C44.6131 21.2971 44.6215 21.3419 44.6213 21.387V27.0579C44.6215 27.1031 44.6131 27.1478 44.5966 27.1896C44.58 27.2314 44.5557 27.2694 44.5251 27.3013C44.4944 27.3333 44.4579 27.3586 44.4178 27.3758C44.3777 27.393 44.3347 27.4017 44.2913 27.4016H40.1121C40.0407 27.4 39.971 27.4238 39.9144 27.4691C39.8578 27.5143 39.8176 27.5782 39.8005 27.6504L32.6142 54.7797C32.5878 54.8457 32.5422 54.9015 32.4839 54.9394C32.4257 54.9773 32.3575 54.9953 32.2889 54.9911C32.2204 54.9869 32.1547 54.9606 32.1011 54.9158C32.0476 54.871 32.0087 54.81 31.9899 54.7412Z" fill="#660066"/>
<path d="M65.9979 44.8883C62.0487 44.8889 58.188 43.6698 54.9041 41.3852C51.6202 39.1006 49.0606 35.8531 47.549 32.0535C46.0373 28.2538 45.6415 24.0727 46.4117 20.0388C47.1818 16.0049 49.0832 12.2994 51.8756 9.39097C54.6679 6.48254 58.2256 4.50179 62.0989 3.69921C65.9722 2.89663 69.987 3.30827 73.6357 4.88207C77.2843 6.45587 80.4029 9.12114 82.597 12.5408C84.7911 15.9605 85.9622 19.981 85.9622 24.0939C85.9569 29.6068 83.852 34.8923 80.1092 38.7908C76.3663 42.6892 71.2914 44.8821 65.9979 44.8883ZM65.9979 8.09319C62.9591 8.09292 59.9885 9.03112 57.4618 10.7891C54.935 12.5471 52.9656 15.046 51.8025 17.9697C50.6395 20.8935 50.335 24.1107 50.9277 27.2146C51.5204 30.3186 52.9835 33.1697 55.1322 35.4076C57.2808 37.6455 60.0184 39.1695 62.9987 39.787C65.9791 40.4045 69.0683 40.0878 71.8758 38.8767C74.6833 37.6657 77.0828 35.6149 78.7711 32.9835C80.4594 30.3522 81.3605 27.2586 81.3605 24.0939C81.3556 19.852 79.7355 15.7854 76.8556 12.7858C73.9756 9.78623 70.0709 8.09865 65.9979 8.09319Z" fill="#660066"/>
<path d="M74.8529 21.7073H68.6196C68.5762 21.7074 68.5332 21.6987 68.4931 21.6815C68.453 21.6643 68.4166 21.639 68.3859 21.607C68.3552 21.575 68.3309 21.5371 68.3144 21.4953C68.2978 21.4535 68.2894 21.4088 68.2896 21.3636V14.872C68.2898 14.8268 68.2813 14.7821 68.2648 14.7403C68.2483 14.6985 68.224 14.6605 68.1933 14.6286C68.1626 14.5966 68.1262 14.5713 68.0861 14.5541C68.046 14.5369 68.003 14.5281 67.9596 14.5283H64.018C63.9746 14.5281 63.9316 14.5369 63.8915 14.5541C63.8513 14.5713 63.8149 14.5966 63.7842 14.6286C63.7535 14.6605 63.7292 14.6985 63.7127 14.7403C63.6962 14.7821 63.6878 14.8268 63.6879 14.872V21.3636C63.6881 21.4088 63.6797 21.4535 63.6632 21.4953C63.6467 21.5371 63.6223 21.575 63.5917 21.607C63.561 21.639 63.5245 21.6643 63.4844 21.6815C63.4443 21.6987 63.4013 21.7074 63.3579 21.7073H57.1247C57.0813 21.7071 57.0383 21.7158 56.9982 21.7331C56.9581 21.7503 56.9216 21.7756 56.891 21.8075C56.8603 21.8395 56.836 21.8774 56.8195 21.9192C56.8029 21.961 56.7945 22.0058 56.7947 22.0509V26.1559C56.7945 26.2011 56.8029 26.2459 56.8195 26.2877C56.836 26.3295 56.8603 26.3674 56.891 26.3994C56.9216 26.4313 56.9581 26.4566 56.9982 26.4738C57.0383 26.491 57.0813 26.4998 57.1247 26.4996H63.3579C63.4013 26.4995 63.4443 26.5082 63.4844 26.5254C63.5245 26.5426 63.561 26.5679 63.5917 26.5999C63.6223 26.6318 63.6467 26.6698 63.6632 26.7116C63.6797 26.7534 63.6881 26.7981 63.6879 26.8433V33.3349C63.6878 33.3801 63.6962 33.4248 63.7127 33.4666C63.7292 33.5084 63.7535 33.5464 63.7842 33.5783C63.8149 33.6103 63.8513 33.6356 63.8915 33.6528C63.9316 33.67 63.9746 33.6788 64.018 33.6786H67.9596C68.003 33.6788 68.046 33.67 68.0861 33.6528C68.1262 33.6356 68.1626 33.6103 68.1933 33.5783C68.224 33.5464 68.2483 33.5084 68.2648 33.4666C68.2813 33.4248 68.2898 33.3801 68.2896 33.3349V26.8447C68.2894 26.7995 68.2978 26.7547 68.3144 26.713C68.3309 26.6712 68.3552 26.6332 68.3859 26.6013C68.4166 26.5693 68.453 26.544 68.4931 26.5268C68.5332 26.5096 68.5762 26.5008 68.6196 26.501H74.8529C74.8962 26.5012 74.9392 26.4924 74.9793 26.4752C75.0195 26.458 75.0559 26.4327 75.0866 26.4007C75.1173 26.3688 75.1416 26.3308 75.1581 26.2891C75.1746 26.2473 75.183 26.2025 75.1829 26.1573V22.0509C75.1802 21.9607 75.1446 21.8748 75.0832 21.811C75.0219 21.7471 74.9395 21.71 74.8529 21.7073Z" fill="#FF6600"/>
</svg>
