<svg width="30" height="30" viewBox="0 0 30 30" fill="none" xmlns="http://www.w3.org/2000/svg">
    <rect x="9.33301" y="3.33331" width="9.33333" height="16.3333" rx="4.66667" fill="#7C7B7B"/>
    <path fill-rule="evenodd" clip-rule="evenodd" d="M7.93648 15.8724C7.86826 15.394 7.48307 15 6.99982 15C6.51657 15 6.11972 15.3933 6.17273 15.8736C6.57565 19.5244 9.47419 22.4234 13.1248 22.8269V25.7917H10.4998C10.0166 25.7917 9.62482 26.1834 9.62482 26.6667C9.62482 27.1499 10.0166 27.5417 10.4998 27.5417H17.4998C17.9831 27.5417 18.3748 27.1499 18.3748 26.6667C18.3748 26.1834 17.9831 25.7917 17.4998 25.7917H14.8748V22.8269C18.5255 22.4234 21.424 19.5244 21.8269 15.8736C21.8799 15.3933 21.4831 15 20.9998 15C20.5166 15 20.1314 15.394 20.0632 15.8724C19.6397 18.8419 17.0864 21.125 13.9998 21.125C10.9133 21.125 8.35994 18.8419 7.93648 15.8724Z" fill="#7C7B7B"/>
</svg>
