<svg width="20" height="20" viewBox="0 0 20 20" fill="none" xmlns="http://www.w3.org/2000/svg">
<path d="M5 7.5C4.17157 7.5 3.5 8.17157 3.5 9C3.5 9.82843 4.17157 10.5 5 10.5C5.82806 10.4991 6.49908 9.82806 6.5 9C6.5 8.17157 5.82843 7.5 5 7.5ZM5 9.5C4.72388 9.5 4.5 9.27612 4.5 9C4.5 8.72388 4.72388 8.5 5 8.5C5.27594 8.50055 5.49945 8.72406 5.5 9C5.5 9.27612 5.27612 9.5 5 9.5ZM17.5 4H16V0.5C16 0.499817 16 0.499634 16 0.49939C15.9998 0.22345 15.776 -0.000182988 15.5 1.12355e-07H4.5C4.49982 1.12355e-07 4.49963 1.12355e-07 4.49939 1.12355e-07C4.22345 0.000183212 3.99982 0.223999 4 0.5V4H2.5C1.11981 4.00128 0.0012817 5.11981 0 6.5V13C0.0018311 14.6561 1.34387 15.9982 3 16H4V19.5C4 19.5002 4 19.5004 4 19.5005C4.00018 19.7766 4.224 20.0002 4.5 20H15.5C15.5002 20 15.5004 20 15.5006 20C15.7766 19.9998 16.0002 19.776 16 19.5V16H17C18.6561 15.9982 19.9982 14.6561 20 13V6.5C19.9987 5.11981 18.8802 4.00128 17.5 4ZM5 1H15V4H5V1ZM15 19H5V13H15V19ZM19 13C18.9986 14.104 18.104 14.9986 17 15H16V12.5C16 12.4998 16 12.4996 16 12.4994C15.9998 12.2234 15.776 11.9998 15.5 12H4.5C4.49982 12 4.49963 12 4.49939 12C4.22345 12.0002 3.99982 12.224 4 12.5V15H3C1.896 14.9986 1.0014 14.104 1 13V6.5C1.00092 5.67194 1.67194 5.00092 2.5 5H4.5H15.5H15.5006H17.5C18.3281 5.00092 18.9991 5.67194 19 6.5V13Z" fill="#4264DF"/>
</svg>
