<svg width="22" height="22" viewBox="0 0 22 22" fill="none" xmlns="http://www.w3.org/2000/svg">
<path d="M16.25 8.87042C16.25 8.56306 16.4113 8.27824 16.6748 8.12011L19.2998 6.54511C19.883 6.19519 20.625 6.61528 20.625 7.29542V15.5796C20.625 16.2597 19.883 16.6798 19.2998 16.3299L16.6748 14.7549C16.4113 14.5968 16.25 14.3119 16.25 14.0046V8.87042Z" fill="#7C7B7B"/>
<path fill-rule="evenodd" clip-rule="evenodd" d="M13.8105 6.33339C13.2561 5.96478 12.5906 5.75 11.875 5.75H3.125C2.1585 5.75 1.375 6.5335 1.375 7.5V13.625C1.375 15.016 2.1865 16.2175 3.36191 16.7819L13.8105 6.33339ZM6.73116 17.125H13.625C14.5915 17.125 15.375 16.3415 15.375 15.375V9.25C15.375 9.01062 15.351 8.77685 15.3052 8.55097L6.73116 17.125Z" fill="#7C7B7B"/>
<path d="M19.75 2.25L2.25 19.75" stroke="#EE6762" stroke-width="1.3125" stroke-linecap="round"/>
</svg>
